DBRep_DrawableShape

CASCADE Topology V1, (c) Matra-Datavision
Locations 1
1
              1               0               0             0.1 
              0               1               0               0 
              0               0               1               0 
Curve2ds 0
Curves 8
1 0 0 0.0050000000000000001 1 0 0 
1 0 0.001 0.0050000000000000001 1 0 0 
1 0 0 0.0050000000000000001 0 1 0 
1 0 0.001 0.001 1 0 0 
1 0 0.001 0.0050000000000000001 0 0 -1 
1 0 0 0.001 1 0 0 
1 0 0.001 0.001 0 -1 0 
1 0 0 0.001 0 0 1 
Polygon3D 0
PolygonOnTriangulations 0
Surfaces 5
1 0 0 0.0050000000000000001 0 0 1 0 1 0 -1 0 0 
1 0 0.001 0.0050000000000000001 -0 1 0 0 0 -1 -1 0 -0 
1 0 0.001 0.001 0 0 -1 0 -1 0 -1 -0 -0 
1 0 0 0.001 0 -1 0 0 0 1 -1 0 0 
1 0 0.0004999999999999999 0.0030000000000000005 -1 -0 -0 0 0 -1 0 -1 0 
Triangulations 0

TShapes 27
Ve
1e-07
0 0 0.005
0 0

0101101
*
Ed
 1e-07 1 1 0
1  1 0 0 0.1
0

0101000
+27 0 -27 1 *
Ve
1e-07
0 0.001 0.005
0 0

0101101
*
Ed
 1e-07 1 1 0
1  2 0 0 0.1
0

0101000
+25 0 -25 1 *
Ed
 1e-07 1 1 0
1  3 0 0 0.001
0

0101000
+27 0 -25 0 *
Wi

0101100
+26 0 -24 0 -23 0 +23 1 *
Fa
0  1e-07 1 0

0101000
+22 0 *
Ve
1e-07
0 0.001 0.001
0 0

0101101
*
Ed
 1e-07 1 1 0
1  4 0 0 0.1
0

0101000
+20 0 -20 1 *
Ed
 1e-07 1 1 0
1  5 0 0 0.004
0

0101000
+25 0 -20 0 *
Wi

0101100
+24 0 -19 0 -18 0 +18 1 *
Fa
0  1e-07 2 0

0101000
+17 0 *
Ve
1e-07
0 0 0.001
0 0

0101101
*
Ed
 1e-07 1 1 0
1  6 0 0 0.1
0

0101000
+15 0 -15 1 *
Ed
 1e-07 1 1 0
1  7 0 0 0.001
0

0101000
+20 0 -15 0 *
Wi

0101100
+19 0 -14 0 -13 0 +13 1 *
Fa
0  1e-07 3 0

0101000
+12 0 *
Ed
 1e-07 1 1 0
1  8 0 0 0.004
0

0101000
+15 0 -27 0 *
Wi

0101100
+14 0 -26 0 -10 0 +10 1 *
Fa
0  1e-07 4 0

0101000
+9 0 *
Wi

0101100
+23 0 +18 0 +13 0 +10 0 *
Fa
0  1e-07 5 0

0111000
+7 0 *
Sh

0101100
+21 0 +16 0 +11 0 +8 0 +6 0 -6 1 *
So

0100000
+5 0 *
Ve
1e-07
0 0 0.005
0 0

0101101
*
Ed
 1e-07 1 1 0
1  8 0 0 0.004
0

0101000
+15 0 -3 0 *
Co

1100000
+4 0 +2 0 *

+1 0 